<?xml version="1.0" encoding="UTF-8" standalone="no"?>
<svg
   width="722.29437"
   height="344.37759"
   stroke="#00979c"
   version="1.1"
   id="svg886"
   sodipodi:docname="arduino.svg"
   inkscape:version="1.1.2 (0a00cf5339, 2022-02-04)"
   xmlns:inkscape="http://www.inkscape.org/namespaces/inkscape"
   xmlns:sodipodi="http://sodipodi.sourceforge.net/DTD/sodipodi-0.dtd"
   xmlns="http://www.w3.org/2000/svg"
   xmlns:svg="http://www.w3.org/2000/svg"
   xmlns:rdf="http://www.w3.org/1999/02/22-rdf-syntax-ns#"
   xmlns:cc="http://creativecommons.org/ns#"
   xmlns:dc="http://purl.org/dc/elements/1.1/">
  <defs
     id="defs890" />
  <sodipodi:namedview
     id="namedview888"
     pagecolor="#ffffff"
     bordercolor="#666666"
     borderopacity="1.0"
     inkscape:pageshadow="2"
     inkscape:pageopacity="0.0"
     inkscape:pagecheckerboard="0"
     showgrid="false"
     fit-margin-top="0"
     fit-margin-left="0"
     fit-margin-right="0"
     fit-margin-bottom="0"
     inkscape:zoom="1.2416667"
     inkscape:cx="362.41611"
     inkscape:cy="246.84564"
     inkscape:window-width="1855"
     inkscape:window-height="1056"
     inkscape:window-x="65"
     inkscape:window-y="24"
     inkscape:window-maximized="1"
     inkscape:current-layer="svg886" />
  <g
     fill="none"
     id="g880"
     transform="translate(2.1177985,1.7253232)">
    <path
       d="M 174,30 C 78.9,22.43 -1,135 38,222 c 38,94.4 181,120 249,44.4 65.9,-64.6 91.3,-164 172,-215 82,-56 214,-3.12 230,96.4 15.6,95.3 -87.1,188 -180,160 -68.7,-15.5 -118,-74.2 -146,-136 -34.5,-59 -79.6,-122 -150,-138 -12.5,-2.84 -25.4,-3.96 -38.2,-3.94 z"
       stroke-width="59"
       id="path874" />
    <path
       d="M 118,165 H 238"
       stroke-width="25"
       id="path876" />
    <path
       d="M 486,165 H 586 M 535,115 V 215"
       stroke-width="32"
       id="path878" />
  </g>
  <title
     id="title884">wiki:Behnam N</title>
  <metadata
     id="metadata972">
    <rdf:RDF>
      <cc:Work
         rdf:about="">
        <dc:title>wiki:Behnam N</dc:title>
      </cc:Work>
    </rdf:RDF>
  </metadata>
</svg>
