<?xml version="1.0" encoding="UTF-8" standalone="no"?>
<!-- Created with Inkscape (http://www.inkscape.org/) -->

<svg
   width="66.500603mm"
   height="28.619131mm"
   viewBox="0 0 66.500603 28.619131"
   version="1.1"
   id="svg44019"
   inkscape:version="1.1.2 (0a00cf5339, 2022-02-04)"
   sodipodi:docname="logo-dot (копия).svg"
   xmlns:inkscape="http://www.inkscape.org/namespaces/inkscape"
   xmlns:sodipodi="http://sodipodi.sourceforge.net/DTD/sodipodi-0.dtd"
   xmlns="http://www.w3.org/2000/svg"
   xmlns:svg="http://www.w3.org/2000/svg">
  <sodipodi:namedview
     id="namedview44021"
     pagecolor="#ffffff"
     bordercolor="#666666"
     borderopacity="1.0"
     inkscape:pageshadow="2"
     inkscape:pageopacity="0.0"
     inkscape:pagecheckerboard="0"
     inkscape:document-units="mm"
     showgrid="false"
     showguides="true"
     inkscape:guide-bbox="true"
     inkscape:zoom="2.2019579"
     inkscape:cx="82.199573"
     inkscape:cy="6.1309074"
     inkscape:window-width="1855"
     inkscape:window-height="1056"
     inkscape:window-x="65"
     inkscape:window-y="24"
     inkscape:window-maximized="1"
     inkscape:current-layer="svg44019"
     fit-margin-top="0"
     fit-margin-left="0"
     fit-margin-right="0"
     fit-margin-bottom="0" />
  <defs
     id="defs44016" />
  <g
     inkscape:label="Слой 1"
     inkscape:groupmode="layer"
     id="layer1"
     transform="translate(-24.813431,-65.042986)" />
  <g
     id="g1051">
    <g
       aria-label="т"
       id="text46057-7"
       style="font-size:16.9333px;line-height:1.25;stroke-width:0.264583"
       transform="translate(-24.813431,-65.042986)">
      <path
         d="m 38.43406,66.837749 h 8.383968 v 2.149735 h -2.984825 v 6.846081 H 41.567712 V 68.987484 H 38.43406 Z"
         style="font-weight:bold;font-family:'Century Gothic';-inkscape-font-specification:'Century Gothic Bold';text-align:end;text-anchor:end"
         id="path112840" />
    </g>
    <g
       aria-label="сб"
       id="text56251-4"
       style="font-size:16.9333px;line-height:1.25;stroke-width:0.264583"
       transform="translate(-24.813431,-65.042986)">
      <path
         d="m 35.589793,83.19456 -1.876884,1.033526 q -0.529166,-0.55397 -1.050063,-0.768944 -0.512629,-0.214973 -1.207159,-0.214973 -1.265037,0 -2.050517,0.760675 -0.777212,0.752408 -0.777212,1.934762 0,1.149282 0.752407,1.876885 0.752408,0.727602 1.976103,0.727602 1.513083,0 2.356441,-1.033526 l 1.777666,1.215427 q -1.446938,1.876884 -4.084498,1.876884 -2.372977,0 -3.720695,-1.405596 -1.339451,-1.405596 -1.339451,-3.290749 0,-1.306377 0.653189,-2.40605 0.653189,-1.099672 1.819007,-1.728056 1.174086,-0.628384 2.621023,-0.628384 1.339451,0 2.40605,0.537434 1.0666,0.529165 1.744593,1.513083 z"
         style="font-weight:bold;font-family:'Century Gothic';-inkscape-font-specification:'Century Gothic Bold';text-align:end;text-anchor:end"
         id="path112843" />
      <path
         d="m 46.222715,77.712734 v 2.133199 q -0.967381,0.107487 -1.876884,0.115755 -1.653643,0.01654 -2.488732,0.148828 -0.83509,0.124023 -1.471742,0.595312 -0.636653,0.463019 -0.901235,1.074867 -0.264583,0.60358 -0.322461,1.744593 0.975649,-2.339904 3.348627,-2.339904 1.744592,0 3.017897,1.281573 1.281573,1.273305 1.281573,3.290749 0,2.083589 -1.372523,3.464381 -1.372523,1.380791 -3.389967,1.380791 -1.645375,0 -2.902143,-1.008722 -1.2485,-1.008722 -1.604033,-2.397781 -0.355534,-1.397328 -0.355534,-2.976557 0,-2.025712 0.504361,-3.290749 0.504361,-1.273305 1.322915,-1.909957 0.826821,-0.636652 1.909957,-0.851626 1.083136,-0.214973 3.183262,-0.305924 1.422132,-0.06615 2.116662,-0.148828 z m -1.694983,8.160727 q 0,-1.124477 -0.677994,-1.860348 -0.669725,-0.744139 -1.777666,-0.744139 -1.058331,0 -1.752861,0.744139 -0.69453,0.744139 -0.69453,1.860348 0,1.174086 0.686262,1.901689 0.69453,0.719334 1.752861,0.719334 1.041795,0 1.752861,-0.719334 0.711067,-0.727603 0.711067,-1.901689 z m -5.060147,4.415225 z"
         style="font-weight:bold;font-family:'Century Gothic';-inkscape-font-specification:'Century Gothic Bold';text-align:end;text-anchor:end"
         id="path112845" />
    </g>
    <path
       d="m 44.060675,7.218711 h -1.810739 q -1.835543,0 -2.827729,-0.702798 Q 38.43829,5.804846 38.43829,4.184277 V 1.794763 h 2.26549 v 2.215881 q 0,1.182355 1.579229,1.182355 l 0.876431,-0.0083 h 0.901235 V 1.794732 h 2.26549 v 8.995816 h -2.26549 z"
       style="font-weight:bold;font-size:16.9333px;line-height:1.25;font-family:'Century Gothic';-inkscape-font-specification:'Century Gothic Bold';stroke-width:0.264583"
       id="path112848" />
    <path
       d="m 64.25165,1.794763 h 2.248954 v 8.995816 H 64.25165 V 9.839734 q -0.661457,0.628384 -1.331183,0.909504 -0.661457,0.272851 -1.438669,0.272851 -1.744593,0 -3.017897,-1.347719 -1.273305,-1.355987 -1.273305,-3.365163 0,-2.083589 1.231964,-3.414772 1.231963,-1.331182 2.993093,-1.331182 0.810285,0 1.521351,0.305924 0.711066,0.305924 1.314646,0.917772 z m -2.372977,1.85208 q -1.050063,0 -1.744593,0.744139 -0.69453,0.735871 -0.69453,1.893421 0,1.165818 0.702798,1.918225 0.711066,0.752407 1.744593,0.752407 1.066599,0 1.769397,-0.73587 0.702798,-0.74414 0.702798,-1.94303 0,-1.174087 -0.702798,-1.901689 Q 62.95354,3.646843 61.878673,3.646843 Z"
       style="font-weight:bold;font-size:16.9333px;line-height:1.25;font-family:'Century Gothic';-inkscape-font-specification:'Century Gothic Bold';stroke-width:0.264583"
       id="path112852" />
    <path
       d="m 40.588024,16.332567 v 0.992185 q 0.611848,-0.611847 1.322914,-0.917771 0.711067,-0.305924 1.521352,-0.305924 1.761129,0 2.993093,1.331182 1.231963,1.331182 1.231963,3.414772 0,2.009176 -1.273304,3.365163 -1.273305,1.347718 -3.017898,1.347718 -0.777212,0 -1.446937,-0.272851 -0.669726,-0.281119 -1.331183,-0.909503 v 4.241593 H 38.347339 V 16.332567 Z m 2.372977,1.852079 q -1.066599,0 -1.769397,0.727603 -0.702798,0.727603 -0.702798,1.901689 0,1.198891 0.702798,1.94303 0.702798,0.735871 1.769397,0.735871 1.033527,0 1.736325,-0.752407 0.711067,-0.752408 0.711067,-1.918226 0,-1.157549 -0.69453,-1.89342 -0.69453,-0.74414 -1.752862,-0.74414 z"
       style="font-weight:bold;font-size:16.9333px;line-height:1.25;font-family:'Century Gothic';-inkscape-font-specification:'Century Gothic Bold';stroke-width:0.264583"
       id="path112855" />
    <g
       id="g1035"
       transform="translate(-0.52916663)">
      <path
         d="m 49.658258,1.794763 h 2.257222 v 3.365163 l 3.108848,-3.365163 h 2.753315 l -4.010083,4.382153 4.059692,4.613663 H 54.834159 L 52.155258,7.615585 51.91548,7.896704 v 2.893875 h -2.257222 z"
         style="font-weight:bold;font-size:16.9333px;line-height:1.25;font-family:'Century Gothic';-inkscape-font-specification:'Century Gothic Bold';stroke-width:0.264583"
         id="path112850" />
      <path
         d="m 49.525963,16.332567 h 2.257222 v 3.365162 l 3.108848,-3.365162 h 2.753315 l -4.010083,4.382153 4.059692,4.613662 h -2.993093 l -2.678901,-3.174993 -0.239778,0.281119 v 2.893874 h -2.257222 z"
         style="font-weight:bold;font-size:16.9333px;line-height:1.25;font-family:'Century Gothic';-inkscape-font-specification:'Century Gothic Bold';stroke-width:0.264583"
         id="path112857" />
    </g>
    <path
       d="m 59.81162,25.328382 h -1.198891 v -8.995815 h 2.199345 v 5.283388 l 4.605394,-5.283388 h 1.083136 v 8.995815 H 64.30126 v -5.175901 z"
       style="font-weight:bold;font-size:16.9333px;line-height:1.25;font-family:'Century Gothic';-inkscape-font-specification:'Century Gothic Bold';stroke-width:0.264583"
       id="path112859" />
    <path
       id="rect112065"
       style="fill:#ff0000;stroke-width:1.59767;stroke-linecap:round"
       d="M 30.088897,1.5324001 A 6.2499988,6.2499988 0 0 0 23.844833,7.6343532 H 23.81486 V 20.134365 h 0.02997 a 6.2499988,6.2499988 0 0 0 -0.0057,0.147795 6.2499988,6.2499988 0 0 0 6.249749,6.250264 6.2499988,6.2499988 0 0 0 6.250262,-6.250264 6.2499988,6.2499988 0 0 0 -0.02429,-0.545186 V 8.327851 A 6.2499988,6.2499988 0 0 0 36.33916,7.7821478 6.2499988,6.2499988 0 0 0 30.088897,1.5324001 Z m 0,2.9042154 a 3.3457821,3.3457821 0 0 1 3.346047,3.3455323 3.3457821,3.3457821 0 0 1 -3.346047,3.3460492 3.3457821,3.3457821 0 0 1 -3.345533,-3.3460492 3.3457821,3.3457821 0 0 1 3.345533,-3.3455323 z m 0,12.5000125 a 3.3457821,3.3457821 0 0 1 3.346047,3.345532 3.3457821,3.3457821 0 0 1 -3.346047,3.346049 3.3457821,3.3457821 0 0 1 -3.345533,-3.346049 3.3457821,3.3457821 0 0 1 3.345533,-3.345532 z" />
    <circle
       style="fill:#ff0000;fill-rule:evenodd;stroke-width:0.334751"
       id="path994"
       cx="6.2620001"
       cy="6.2620001"
       r="6.2620001" />
  </g>
</svg>
