<?xml version="1.0" encoding="utf-8"?>
<!-- Generator: Adobe Illustrator 16.0.0, SVG Export Plug-In . SVG Version: 6.00 Build 0)  -->
<!DOCTYPE svg PUBLIC "-//W3C//DTD SVG 1.1//EN" "http://www.w3.org/Graphics/SVG/1.1/DTD/svg11.dtd">
<svg version="1.1" id="Layer_1" xmlns="http://www.w3.org/2000/svg" xmlns:xlink="http://www.w3.org/1999/xlink" x="0px" y="0px"
	 width="1000px" height="211.824px" viewBox="0 0 1000 211.824" enable-background="new 0 0 1000 211.824" xml:space="preserve">
<g>
	<rect x="1.437" y="1.425" fill="#FFFFFF" width="209.002" height="208.997"/>
	<path fill="#FFF200" d="M1.437,210.419h209.002v-209H1.437V210.419z M196.534,88.294c-0.339,6.514-2.419,14.627-4.247,20.046
		c-7.344,21.842-15.865,35.371-35.598,35.371c-5.804,0-16.112-1.543-19.917-11.887l-0.891-2.447l-1.621,2.061
		c-6.171,7.806-15.342,12.32-25.157,12.374c-7.527,0.028-13.579-2.497-17.491-7.304l-1.075-1.318l-1.143,1.267
		c-4.177,4.611-11.464,7.255-19.98,7.255c-6.683,0-12.452-2.272-16.25-6.39l-1.034-1.124l-1.069,1.086
		c-4.229,4.262-10.883,6.41-19.25,6.215c-10.142-0.241-16.32-5.906-16.521-15.156c-0.305-14.259,13.504-44.269,19.21-53.394
		c3.712-6.097,8.809-9.05,15.601-9.05c4.625,0,7.781,0.971,9.659,2.953c1.707,1.813,2.046,3.336,2.195,7.002l0.201,4.755l2.5-4.042
		c6.068-9.76,16.107-11.11,26.054-11.11c6.924,0,12.952,2.548,15.377,6.485l0.896,1.453l1.293-1.105
		c5.131-4.359,12.36-6.761,20.37-6.761c8.74,0,15.09,2.178,18.877,6.462c0.868,0.977,1.437,1.658,2.224,3.318l0.971,2.037
		l1.465-1.727c5.545-6.56,13.119-9.884,22.514-9.884c7.441,0,13.096,1.976,16.796,5.878
		C196.131,76.508,196.792,83.387,196.534,88.294"/>
	<path fill="#ED1C24" d="M1.442,210.419h208.997v-209H1.442V210.419z M202.417,96.313c-0.942,7.603-6.085,21.695-8.814,27.332
		c-7.333,15.094-17.124,26.697-35.983,26.697c-10.073,0-18.365-3.221-23.215-9.392c-7.091,6.22-15.883,9.481-25.335,9.481
		c-7.292,0-13.728-2.109-18.641-6.006c-5.419,3.828-12.729,5.956-20.836,5.956c-6.775,0-12.866-1.864-17.635-5.295
		c-5.275,3.494-12.188,5.238-20.302,5.042c-13.492-0.318-22.819-8.871-23.083-21.313c-0.362-16.504,13.55-46.743,20.106-57.207
		c4.907-8.053,12.389-12.397,21.566-12.397c9.958,0,13.566,2.85,15.342,6.467c7.688-6.531,17.865-6.896,25.123-6.896
		c7.999,0,13.026,2.118,17.296,5.52c5.901-3.542,12.67-5.378,20.732-5.378c10.309,0,17.968,2.402,23.307,7.68
		c6.229-5.186,14.027-7.551,22.767-7.551c11.544,0,19.141,4.166,23.6,10.375C204.699,78.184,203.578,86.999,202.417,96.313"/>
	<path d="M0,211.824h211.83V0H0V211.824z M208.911,208.916H2.919V2.919h205.992V208.916z"/>
	<path d="M201.4,63.57v-1.448h0.977c0.719,0,1.086,0.259,1.086,0.724c0,0.365-0.241,0.724-0.965,0.724H201.4z M204.911,66.559
		l-0.603-1.055c-0.54-0.928-0.678-1.069-1.132-1.235v-0.023c0.891-0.106,1.419-0.676,1.419-1.471c0-0.836-0.528-1.472-1.661-1.472
		h-2.62v5.256h1.086v-2.155h0.19c0.465,0,0.655,0.055,0.868,0.265c0.212,0.212,0.529,0.66,0.718,1.031l0.419,0.859H204.911z
		 M202.326,59.838c2.258,0,4.091,1.819,4.091,4.071c0,2.256-1.833,4.086-4.091,4.086c-2.252,0-4.063-1.83-4.063-4.086
		C198.263,61.657,200.073,59.838,202.326,59.838 M202.326,58.833c-2.81,0-5.068,2.272-5.068,5.076c0,2.813,2.258,5.074,5.068,5.074
		c2.816,0,5.08-2.261,5.08-5.074C207.406,61.105,205.142,58.833,202.326,58.833"/>
	<path d="M174.698,64.278c-10.94,0-18.509,4.341-23.628,10.394c-0.868-1.81-1.523-2.606-2.454-3.646
		c-4.183-4.744-10.923-6.956-19.968-6.956c-8.832,0-16.204,2.752-21.318,7.102c-2.655-4.312-8.987-7.174-16.618-7.174
		c-9.976,0-20.847,1.414-27.289,11.799c-0.155-3.743-0.494-5.72-2.603-7.943c-2.551-2.707-6.688-3.414-10.717-3.414
		c-7.344,0-12.866,3.206-16.836,9.737c-5.775,9.211-19.75,39.52-19.434,54.193c0.201,9.487,6.568,16.313,17.951,16.59
		c8.896,0.213,15.872-2.173,20.313-6.643c3.982,4.313,10.062,6.86,17.325,6.86c8.09,0,16.244-2.431,21.054-7.757
		c4.056,4.984,10.435,7.884,18.635,7.844c10.728-0.052,20.146-5.144,26.294-12.926c3.373,9.19,11.935,12.839,21.284,12.839
		c20.491,0,29.49-14.095,36.983-36.37c1.689-5.02,3.948-13.398,4.321-20.437C198.613,76.669,193.655,64.278,174.698,64.278
		 M38.373,120.281c10.597-1.836,13.269,1.996,12.93,5.539c-0.995,10.625-10.746,13.004-19.21,12.803
		c-6.137-0.141-11.653-2.953-11.809-10.08c-0.27-12.475,12.446-41.312,18.429-50.874c2.764-4.537,6.131-6.784,11.503-6.784
		c5.097,0,6.356,2.617,6.281,5.746C56.296,84.981,42.804,110.368,38.373,120.281 M72.897,110.489
		c-0.707,1.896-2.034,5.872-3.109,10.087c3.482-0.865,6.091-1.471,10.562-1.365c5.097,0.124,8.35,2.236,8.35,6.447
		c0,10.213-11.286,13.211-19.118,13.211c-8.591,0-16.142-4.901-16.142-14.291c0-11.021,5.977-27.734,11.579-38.867
		c6.89-13.662,13.918-15.486,26.037-15.486c5.321,0,11.452,2.285,11.452,7.304c0,6.97-5.901,9.631-11.751,9.967
		c-2.5,0.136-6.338,0.276-8.648,0.118c0,0-1.948,2.964-4.022,8.254c10.837-1.522,15.435,0.931,13.607,7.203
		C89.222,111.531,81.878,112.098,72.897,110.489 M126.199,84.137c-2.93,0-4.844,1.859-6.275,3.858
		c-3.138,4.414-9.941,22.095-11.01,29.355c-0.718,4.979,1.419,5.99,3.775,5.99c3.764,0,7.981-3.982,9.424-10.561
		c0,0-7.166-0.17-5.189-6.531c1.919-6.172,5.562-7.508,11.607-7.755c11.889-0.483,10.717,8.3,9.763,12.987
		c-3.086,15.204-13.917,27.43-29.231,27.43c-10.487,0-16.998-5.795-16.998-16.486c0-7.619,3.781-19.583,6.775-26.585
		c6.378-14.892,13.067-25.321,30.105-25.321c10.222,0,18.29,3.672,17.106,13.245c-0.868,7.034-4.384,11.165-10.779,11.66
		c-1.782,0.141-9.097-0.043-6.672-6.962C129.452,86.042,129.796,84.137,126.199,84.137 M190.557,96.709
		c-1.81,8.973-5.855,19.583-10.257,27.49c-7.177,12.912-15.888,14.711-23.497,14.625c-7.608-0.096-16.187-2.908-16.25-14.642
		c-0.052-8.425,3.585-20.325,6.671-28.125c5.379-14.127,10.878-25.655,28.255-25.456C195.746,70.842,192.132,88.866,190.557,96.709
		 M176.105,87.877c-0.218,5.407-8.154,27.05-10.964,31.833c-1.224,2.066-2.603,3.77-5.085,3.77c-2.161,0-3.131-1.533-3.184-3.281
		c-0.149-4.883,8.804-29.375,11.878-33.345c1.356-2.1,2.873-2.442,4.608-2.424C175.904,84.464,176.169,86.3,176.105,87.877"/>
	<path d="M598.633,114.434c0,0-6.631,23.172-8.492,29.627c-1.275,4.414-6.379,7.273-9.275,7.273c0,0-50.359,0.005-82.366,0.005
		c-2.414,0-5.93-0.546-9.418-1.942c-3.051-1.224-4.989-2.299-7.253-4.313c-2.39-2.135-3.947-4.172-5.579-7.395
		c-1.712-3.368-2.396-5.514-2.74-9.281c-0.374-3.93,1.068-9.785,1.109-10.078c0.033-0.276,5.067-16.917,7.532-25.379
		c1.719-5.913,3.729-11.803,8.517-17.859c7.464-9.444,14.555-13.644,26.352-16.063c2.604-0.534,4.104-0.758,6.746-0.876
		c0.965-0.034,2.471-0.023,2.471-0.023h79.219c0.281,0,0.941,0.069,1.516,0.212c3.973,0.983,6.133,5.358,5.701,8.783
		c-0.035,0.291-4.193,13.599-5.787,20.466c-0.488,2.083-2.43,7.433-2.43,7.433l-84.648-0.072l-5.844,19.448L598.633,114.434z"/>
	<path d="M278.532,58.126h100.134c0.281,0,1.04,0.058,1.689,0.218c3.965,0.971,6.126,5.353,5.695,8.783
		c-0.035,0.29-4.219,13.593-5.902,20.465c-0.851,3.502-5.747,7.361-8.953,7.361l-29.524,0.055c0,0-8.803,31.544-13.82,49.05
		c-1.236,4.324-5.729,7.283-8.93,7.283h-27.289c-0.282,0-0.839-0.146-1.351-0.316c-3.603-1.16-5.746-3.973-5.838-7.748
		c-0.028-0.953,0.034-1.515,0.299-2.419c5.608-19.449,13.268-45.85,13.268-45.85l-27.484-0.061
		c-0.288,0.006-0.845-0.135-1.362-0.299c-3.631-1.141-5.671-4.042-5.815-7.843c-0.041-1.095,0.023-1.735,0.345-2.773
		c2.304-7.435,5.85-19.1,5.85-19.1C270.637,60.991,274.464,58.155,278.532,58.126"/>
	<path d="M913.453,58.155h79.432c0.287,0,1.482,0.18,2.355,0.528c3.506,1.408,5.113,5.126,4.695,8.473
		c-0.26,2.115-0.305,1.285-0.967,3.778c-1.504,5.664-2.885,10.464-4.826,16.697c-1.07,3.43-5.746,7.36-8.941,7.349h-78.143
		l-5.84,19.445h75.156c0.289,0,0.662,0.04,1.074,0.124c4.137,0.77,7.172,5.048,6,8.961c-2.219,7.379-4.621,15.619-6.041,20.465
		c-0.998,3.443-5.48,7.367-9.561,7.367H884.82c-0.42,0-5.367-0.905-6.717-1.348c-1.311-0.393-2.799-0.871-4.166-1.551
		c-1.639-0.831-3.219-2.037-4.736-3.328c-2.563-2.168-4.092-4.812-5.688-7.389c-0.852-1.365-1.219-3.018-1.695-4.477
		c-1.018-3.121-1.316-6.568-0.902-9.853c0.023-0.286,0.932-4.749,0.965-5.036c0.033-0.27,4.826-17.081,7.545-25.496
		c1.855-5.773,3.746-11.729,8.506-17.739c5.578-7.074,10.146-10.493,18.523-13.823c4.449-1.772,7.166-2.436,11.936-2.918
		L913.453,58.155z"/>
	<path d="M852.658,58.155h21.457c0.299,0,1.01,0.124,1.627,0.307c3.871,1.152,6.102,5.263,5.676,8.694
		c-0.041,0.284-18.777,64.103-22.066,76.824c-0.891,3.485-5.746,7.361-8.951,7.361h-21.803c-0.281,0-0.918-0.241-1.355-0.316
		c-3.35-0.566-6.176-4.933-5.809-7.838l0.34-2.777c0.033-0.288,15.313-53.182,21.76-75.092
		C844.803,60.973,849.389,58.155,852.658,58.155"/>
	<path d="M758.781,57.048c5.127,0.848,8.023,2.376,12.107,5.609c2.834,2.247,4.811,4.577,6.252,6.866
		c6.879,10.838,14.268,21.606,21.336,32.326c3.379-11.843,6.826-23.884,10.51-36.528c1.246-4.279,5.891-7.166,8.902-7.166h21.922
		c0.285,0,0.936,0.198,1.355,0.298c4.477,1.06,6.131,5.267,5.713,8.697c-0.043,0.29-10.961,38.218-16.436,57.285
		c-0.156,0.58-0.545,1.24-0.719,1.827c-1.045,3.284-2.326,6.354-4.637,9.964c-4.184,6.502-7.729,9.797-14.492,13.532
		c-0.811,0.454-1.26,0.7-2.086,1.071c-4.068,1.877-6.779,2.006-11.264,2.348c-1.039,0.063-1.643,0.124-2.699,0.106
		c-3.719-0.05-7.264-1.224-9.32-1.988c-3.742-1.407-8.322-4.626-11.219-9.004c-7.688-11.634-15.227-22.977-22.801-34.386
		c0,0-0.08,0.095-0.16,0.187c-3.447,11.88-7.172,23.839-10.246,35.882c-0.896,3.488-5.752,7.361-8.957,7.361h-21.688
		c-0.275,0-0.832-0.141-1.355-0.313c-3.621-1.164-5.711-4.028-5.811-7.844c-0.021-0.994,0.305-2.529,0.305-2.529l17.391-59.737
		c0.303-0.635,0.574-1.292,0.758-1.882c1.699-5.243,6.377-12.809,13.848-16.945c0.748-0.417,1.184-0.624,1.955-0.994
		c5.182-2.471,8.4-3.66,14.111-4.154C754.248,56.69,755.926,56.578,758.781,57.048"/>
	<path d="M616.729,58.155h21.111c4.018,0,8.16,4.26,7.275,9.007l-5.518,19.353h45.873c2.506-7.329,4.609-14.604,7.293-22.694
		c1.246-3.759,6.078-5.666,8.441-5.666h21.227c0.287,0,1.275,0.124,2.057,0.376c3.654,1.236,5.258,5.479,4.861,8.62
		c-0.035,0.29-4.27,14.647-6.361,21.961c-1.545,5.465-3.184,11.085-4.811,16.688c-3.705,12.655-7.602,25.459-10.889,38.175
		c-0.885,3.491-5.74,7.361-8.941,7.361h-21.576c-0.289,0-0.84-0.146-1.357-0.311c-3.631-1.166-5.711-4.03-5.814-7.844
		c-0.033-0.996,0.316-2.537,0.316-2.537l5.389-18.439h-45.756c-2.242,7.143-4.172,13.832-6.5,21.77
		c-1.279,4.336-5.752,7.361-8.945,7.361h-22.037c-0.283,0-0.834-0.146-1.352-0.311c-3.631-1.166-5.672-4.03-5.82-7.844
		c-0.039-1.082,0.35-2.771,0.35-2.771c0.035-0.288,3.332-11.209,4.982-16.794c1.506-5.148,3.057-10.31,4.533-15.435
		c4.086-14.052,8.234-28.136,12.459-42.183c0.057-0.23,0.213-0.417,0.355-0.681C609.758,61.344,613.477,58.155,616.729,58.155"/>
	<path d="M408.386,58.126h79.896c0.287,0,1.194,0.035,1.931,0.218c3.964,0.971,6.344,4.876,5.7,8.783
		c-0.058,0.285-3.977,13.63-5.913,20.465c-0.442,1.583-1.487,3.238-3.183,4.795c0.453,0.756,0.557,2.925,0.436,3.885
		c-0.04,0.287-3.567,12.351-5.206,18.529c-0.224,0.813-0.805,2.014-1.528,2.991c-0.328,0.456-1.127,1.169-1.155,1.459
		c-0.028,0.215,0.719,2.488,0.5,4.229c-0.172,1.365-3.763,12.904-6.033,20.578c-1.305,4.402-5.96,7.203-9.279,7.283h-81.385
		c-3.27-0.404-6.287-0.629-9.907-2.247c-4.85-2.172-7.424-4.341-10.533-8.662c-3.643-5.071-4.919-8.984-4.97-15.233
		c-0.023-2.511,0.31-4.83,0.724-6.406c2.591-9.838,5.533-19.685,8.504-29.499c0.293-1.017,0.672-2.195,1.08-3.212
		c1.522-3.755,3.5-7.663,6.855-11.791c5.873-7.22,10.768-10.576,19.531-13.705c1.96-0.701,3.087-1.042,5.108-1.488
		C402.939,58.344,406.123,58.126,408.386,58.126"/>
	<path d="M376.966,66.107H278.32l-6.148,20.713h36.196c-0.672,2.341-16.095,56.382-16.095,56.382h27.576
		c0,0,15.705-55.023,16.084-56.382h36.173l6.154-20.713H376.966z"/>
	<path d="M913.234,66.107l-3.043,0.101c-4.121,0.101-5.875,0.606-8.541,1.377l-0.213,0.06c-1.941,0.439-4.039,1.27-6.367,2.517
		c-9.555,5.149-14.883,12.173-18.381,24.267l-7.344,25.337c-1.938,6.721-0.695,12.129,4.057,17.547
		c3.873,4.301,8.166,5.907,15.82,5.907h79.723l6.166-20.729h-84.912c0.678-2.268,10.217-34.395,10.602-35.67h84.895l5.994-20.707
		l-76.967-0.006H913.234z"/>
	<path d="M486.822,66.107H407.91c-7.672,0.299-12.125,1.601-17.693,5.155c-0.012,0.011-0.263,0.181-0.263,0.181
		c-1.386,0.919-2.696,1.779-3.966,2.833c-5.292,4.134-8.338,8.294-10.494,14.351c-0.333,0.793-0.54,1.511-0.741,2.213
		c-0.005,0.006-7.866,27.188-7.866,27.188c-2.011,6.967-1.075,12.192,3.252,18.012c3.908,5.091,9.073,7.162,17.831,7.162h77.828
		l6.154-20.712h-84.706c0.517-1.778,2.189-7.484,2.489-8.539h84.239l5.436-18.681h-84.412c0.563-1.79,2.322-7.422,2.638-8.45h84.257
		l6.219-20.713H486.822z"/>
	<polygon points="872.305,66.107 851.492,66.107 829.277,143.202 851.359,143.202 873.58,66.107 	"/>
	<path d="M745.18,66.487l-0.006,0.005c-8.578,3.167-14.703,9.137-16.801,16.386l-17.48,60.339h21.813
		c0,0,14.797-51.099,15.871-54.788c2.137,3.206,32.609,48.877,32.609,48.877c6.029,7.869,15.096,9.835,24.906,5.434
		c8.348-3.738,13.76-10.203,16.549-19.791l16.404-56.838h-22.088c0,0-14.723,51.825-15.785,55.563
		c-2.154-3.256-32.443-49.039-32.443-49.039C763.098,65.034,754.961,62.921,745.18,66.487"/>
	<path d="M720.207,66.107h-20.152c0,0-8.326,27.855-8.723,29.163h-62.439c0.645-2.244,8.332-29.163,8.332-29.163H615.43
		l-22.576,77.095h22.15c0,0,8.418-27.863,8.816-29.162h62.156c-0.654,2.253-8.539,29.18-8.539,29.18h21.824l22.215-77.112H720.207z"
		/>
	<path d="M523.313,66.205L523.313,66.205c-3.553,0.248-5.988,0.647-8.707,1.437c-1.947,0.446-4.051,1.27-6.371,2.518
		c-9.557,5.154-14.883,12.176-18.383,24.266l-7.344,25.339c-1.942,6.72-0.695,12.127,4.039,17.546
		c3.891,4.301,8.184,5.907,15.836,5.907h79.725l6.148-20.73h-84.895c0.678-2.258,10.215-34.385,10.59-35.669h84.9l6-20.706
		l-76.967-0.006C527.787,66.105,525.088,66.082,523.313,66.205"/>
	<polygon fill="#FFFFFF" points="273.459,85.863 309.637,85.863 293.547,142.24 319.124,142.24 335.213,85.863 371.386,85.863 
		376.966,67.07 279.038,67.07 	"/>
	<path fill="#FFFFFF" d="M870.271,120.037c-1.754,6.064-0.875,11.256,3.844,16.632c3.615,4.014,7.646,5.579,15.107,5.579h79.016
		l5.58-18.799h-84.902l11.16-37.589h84.896l5.441-18.788l-75.691-0.005h-1.488l-3.016,0.101c-4.115,0.092-5.797,0.609-8.506,1.394
		c-2.131,0.494-4.182,1.365-6.188,2.448c-9.084,4.896-14.395,11.544-17.912,23.684L870.271,120.037z"/>
	<path fill="#FFFFFF" d="M367.812,118.295c-1.85,6.379-1.201,11.393,3.092,17.176c3.551,4.611,8.298,6.767,17.066,6.767h77.115
		l5.579-18.788h-84.7l3.052-10.455h84.246l4.873-16.765h-84.442l3.235-10.369h84.251l5.643-18.793h-76.82h-2.092
		c-7.55,0.293-11.803,1.572-17.176,5.007c-1.477,0.977-2.828,1.865-4.138,2.943c-5.148,4.025-8.101,8.047-10.199,13.94
		c-0.334,0.787-0.522,1.472-0.724,2.158L367.812,118.295z"/>
	<polygon fill="#FFFFFF" points="830.551,142.24 850.641,142.24 872.305,67.07 852.211,67.07 	"/>
	<path fill="#FFFFFF" d="M712.168,142.252h19.813l16.246-56.076l33.766,50.596c5.91,7.726,14.547,9.196,23.707,5.091
		c7.896-3.525,13.229-9.59,16.01-19.189L837.77,67.07h-20.09l-16.15,56.883l-33.594-50.792c-5.453-7.338-13.309-9.099-22.428-5.775
		c-8.477,3.138-14.262,9.004-16.215,15.759L712.168,142.252z"/>
	<polygon fill="#FFFFFF" points="594.145,142.24 614.293,142.24 623.107,113.078 687.264,113.078 678.725,142.252 698.543,142.252 
		720.207,67.07 700.762,67.07 692.045,96.232 627.623,96.232 635.961,67.07 616.148,67.07 	"/>
	<path fill="#FFFFFF" d="M483.432,120.037c-1.752,6.064-0.873,11.256,3.845,16.632c3.614,4.014,7.642,5.579,15.106,5.579h79.012
		l5.574-18.799h-84.896l11.166-37.589h84.891l5.441-18.788l-75.686-0.005c0,0-2.752-0.026-4.504,0.101
		c-3.355,0.227-5.793,0.609-8.516,1.394c-2.121,0.494-4.178,1.365-6.178,2.448c-9.09,4.896-14.401,11.544-17.917,23.684
		L483.432,120.037z"/>
	<polygon points="983.645,143.383 983.645,151.04 982.363,151.04 982.363,143.383 979.605,143.383 979.605,142.254 986.438,142.254 
		986.438,143.383 	"/>
	<path d="M996.172,142.252c0.332,0,0.51,0.188,0.521,0.521l0.352,8.264h-1.264l-0.311-7.726h-0.254l-1.787,6.249
		c-0.074,0.293-0.258,0.428-0.545,0.428h-1.104c-0.299,0-0.482-0.135-0.57-0.428l-1.793-6.249h-0.24l-0.287,7.726h-1.26l0.324-8.264
		c0.012-0.333,0.195-0.521,0.521-0.521h1.42c0.287,0,0.443,0.151,0.527,0.43l1.49,5.141c0.121,0.414,0.205,0.796,0.291,1.184h0.232
		c0.092-0.404,0.176-0.77,0.309-1.195l1.477-5.129c0.092-0.278,0.254-0.43,0.563-0.43H996.172z"/>
</g>
</svg>
