<?xml version="1.0" encoding="UTF-8" standalone="no"?>
<!-- Created with Inkscape (http://www.inkscape.org/) -->

<svg
   version="1.1"
   id="svg906"
   xml:space="preserve"
   width="1001.7733"
   height="1169.1733"
   viewBox="0 0 1001.7733 1169.1733"
   sodipodi:docname="tiktok-seeklogo.svg"
   inkscape:version="1.1.2 (0a00cf5339, 2022-02-04)"
   xmlns:inkscape="http://www.inkscape.org/namespaces/inkscape"
   xmlns:sodipodi="http://sodipodi.sourceforge.net/DTD/sodipodi-0.dtd"
   xmlns="http://www.w3.org/2000/svg"
   xmlns:svg="http://www.w3.org/2000/svg"><defs
     id="defs910" /><sodipodi:namedview
     id="namedview908"
     pagecolor="#ffffff"
     bordercolor="#666666"
     borderopacity="1.0"
     inkscape:pageshadow="2"
     inkscape:pageopacity="0.0"
     inkscape:pagecheckerboard="0"
     showgrid="false"
     inkscape:zoom="0.76720874"
     inkscape:cx="500.51568"
     inkscape:cy="584.58667"
     inkscape:window-width="1855"
     inkscape:window-height="1056"
     inkscape:window-x="65"
     inkscape:window-y="24"
     inkscape:window-maximized="1"
     inkscape:current-layer="g912" /><g
     id="g912"
     inkscape:groupmode="layer"
     inkscape:label="ink_ext_XXXXXX"
     transform="matrix(1.3333333,0,0,-1.3333333,0,1169.1733)"><g
       id="g914"
       transform="scale(0.1)"><path
         d="m 5193.55,8768.77 c -0.42,-117.23 14.83,-243.14 34,-358.09 H 4117.12 V 2881.99 c 0,-254.85 -26.15,-481.82 -78.43,-680.91 -452.19,-996.71 -1732.52,-866.46 -2086.3,-182.52 526.74,-329.78 1392.82,-242.22 1748.25,540.61 51.85,198.66 77.98,426.06 77.98,680.91 v 5528.69 z m 755.4,-1671.97 c 286.22,-228.71 680.9,-397.36 1225.01,-429.59 V 6349.58 C 6571.91,6460.78 6190.29,6760 5948.95,7096.8 Z M 868.199,1024.44 C -943.594,2596.64 228.152,6097.02 3013.65,5656.61 V 5332.43 C 661.227,5441.84 -374.277,2635.85 868.199,1024.44"
         style="fill:#69cdcd;fill-opacity:1;fill-rule:evenodd;stroke:none"
         id="path916" /><path
         d="m 5532.06,8410.68 v -7.07 c 0.42,-128.04 37.9,-1979.03 1980.38,-2094.49 0,-1722 0.88,0 0.88,-1430.18 -145.94,-8.65 -1278.58,73.19 -1983.45,701.86 L 5527.7,2796.6 C 5545.13,1535.87 4843.32,299.551 3529.44,50.3711 3161.32,-19.3398 2829.87,-27.1875 2273.46,94.3711 -931.887,1053.18 133.23,5807.28 3351.7,5298.51 c 0,-1534.81 0.88,0.43 0.88,-1534.81 -1329.57,195.61 -1774.35,-910.46 -1421.05,-1702.44 321.55,-721 1645.39,-877.37 2107.16,139.82 52.28,199.09 78.43,426.06 78.43,680.91 v 5528.69 h 1414.94"
         style="fill:#040606;fill-opacity:1;fill-rule:evenodd;stroke:none"
         id="path918" /><path
         d="m 5532.06,8410.68 v -7.07 c 0,-75.27 13.5,-743.63 416.89,-1306.81 -486.17,388.98 -659.55,950.94 -721.4,1313.88 z m 1641.9,-2061.1 c 105.85,-19.49 218.69,-33.43 338.48,-40.46 0,-1722 0.88,0 0.88,-1430.18 -145.94,-8.65 -1278.58,73.19 -1983.45,701.86 L 5527.7,2796.6 C 5545.13,1535.87 4843.32,299.551 3529.44,50.3711 3161.32,-19.3398 2829.87,-27.1875 2273.46,94.3711 1647.06,281.691 1184.47,614.5 868.199,1024.44 1150,779.621 1503.73,581.402 1935.46,452.012 2491.26,330.91 2822.84,338.762 3190.94,408.469 4504.83,657.652 5206.63,1893.96 5189.64,3154.25 l 1.76,2784.64 c 704.84,-628.67 1837.49,-710.96 1983.87,-701.8 0,1328.18 -1.31,-61.92 -1.31,1112.49 z M 3013.65,5332.43 c 109.73,-4.8 222.61,-15.63 338.05,-33.92 0,-1534.81 0.88,0.43 0.88,-1534.81 -1329.57,195.61 -1774.35,-910.46 -1421.05,-1702.44 6.49,-14.39 13.51,-28.77 20.86,-42.7 -158.13,98.89 -285.29,234.81 -359.28,400.79 -352.88,791.99 91.42,1898.04 1420.97,1702.45 0,1406.67 -0.43,236.13 -0.43,1210.63"
         style="fill:#ed1959;fill-opacity:1;fill-rule:evenodd;stroke:none"
         id="path920" /></g></g></svg>
