<?xml version="1.0" encoding="utf-8"?>
<!-- Generator: Adobe Illustrator 24.0.2, SVG Export Plug-In . SVG Version: 6.00 Build 0)  -->
<svg version="1.1" id="Слой_1" xmlns="http://www.w3.org/2000/svg" xmlns:xlink="http://www.w3.org/1999/xlink" x="0px" y="0px"
	 viewBox="0 0 24 24" style="enable-background:new 0 0 24 24;" xml:space="preserve">
<style type="text/css">
	.st0{fill-rule:evenodd;clip-rule:evenodd;fill:#FFFFFF;}
	.st1{fill:#2787F5;}
</style>
<g>
	<g>
		<path class="st0" d="M27.2,45.5"/>
	</g>
</g>
<path class="st1" d="M0,11.5c0-5.4,0-8.1,1.7-9.8S6.1,0,11.5,0h1c5.4,0,8.1,0,9.8,1.7S24,6.1,24,11.5v1c0,5.4,0,8.1-1.7,9.8
	S17.9,24,12.5,24h-1c-5.4,0-8.1,0-9.8-1.7S0,17.9,0,12.5V11.5z"/>
<path class="st0" d="M6.5,7.5H4.8C4.3,7.5,4.2,7.7,4.2,8c0,0.5,0.6,2.8,2.8,5.8c1.4,2.1,3.5,3.2,5.3,3.2c1.1,0,1.3-0.3,1.3-0.7v-1.6
	c0-0.5,0.1-0.6,0.5-0.6c0.3,0,0.7,0.1,1.7,1.1c1.2,1.2,1.4,1.7,2.1,1.7h1.8c0.5,0,0.8-0.3,0.6-0.7c-0.2-0.5-0.7-1.2-1.5-2.1
	c-0.4-0.5-1-1-1.2-1.3c-0.3-0.3-0.2-0.5,0-0.8c0,0,2.1-3,2.4-4c0.1-0.4,0-0.6-0.5-0.6h-1.8c-0.4,0-0.6,0.2-0.8,0.5
	c0,0-0.9,2.2-2.2,3.6c-0.4,0.4-0.6,0.5-0.8,0.5c-0.1,0-0.3-0.1-0.3-0.5V8.1c0-0.4-0.1-0.6-0.5-0.6h-2.8c-0.3,0-0.4,0.2-0.4,0.4
	c0,0.4,0.6,0.5,0.7,1.7v2.6c0,0.6-0.1,0.7-0.3,0.7c-0.6,0-2-2.2-2.9-4.7C7.1,7.7,6.9,7.5,6.5,7.5L6.5,7.5z"/>
</svg>
